<?xml version="1.0" encoding="utf-8"?>
<!-- Generator: Adobe Illustrator 27.3.1, SVG Export Plug-In . SVG Version: 6.00 Build 0)  -->
<svg version="1.1" id="Layer_1" xmlns="http://www.w3.org/2000/svg" xmlns:xlink="http://www.w3.org/1999/xlink" x="0px" y="0px"
	 viewBox="0 0 1500 1500" style="enable-background:new 0 0 1500 1500;" xml:space="preserve">
<style type="text/css">
	.st0{fill:#85BF56;}
	.st1{fill:#DB9843;}
	.st2{fill:#222835;}
	.st3{fill:url(#SVGID_1_);}
	.st4{opacity:0.3;fill:url(#SVGID_00000018206574991114264710000001051594155792193460_);}
	.st5{fill:url(#SVGID_00000140015807398005661180000011812250334561163676_);}
	.st6{fill:url(#SVGID_00000159435993942902925960000016379875595739898544_);}
	.st7{opacity:0.3;fill:url(#SVGID_00000035521435794152553000000015109818378406646463_);}
	.st8{fill:url(#SVGID_00000050629151060725008010000005149191214163446912_);}
	.st9{fill:url(#SVGID_00000181074082925786495590000009688704392855607207_);}
	.st10{fill:url(#SVGID_00000072982462160367231760000001838031500281062816_);}
	.st11{fill:url(#SVGID_00000111882337278802276900000013042744844327184062_);}
	.st12{fill:url(#SVGID_00000149344042303599971720000009356300740910227367_);}
	.st13{opacity:0.3;fill:url(#SVGID_00000074400149477788199630000002363309664660360623_);}
	.st14{fill:url(#SVGID_00000070110915265472469640000010115662369798941366_);}
	.st15{fill:url(#SVGID_00000008142989766717928760000005422401768702190723_);}
	.st16{opacity:0.3;fill:url(#SVGID_00000045577752999947120220000004332423753475794307_);}
	.st17{fill:url(#SVGID_00000103243476545229968440000003063043829924113549_);}
	.st18{fill:url(#SVGID_00000088831632838887824090000008606434827584524185_);}
	.st19{fill:url(#SVGID_00000094608066675881224950000006822676768815192765_);}
	.st20{fill:url(#SVGID_00000034792748751817051440000012974511767727462804_);}
</style>
<g>
	<path class="st2" d="M465.72,868.17h-11.51l0.28-2.57h25.82l-0.28,2.57h-11.51l-3.12,29.54h-2.75L465.72,868.17z"/>
	<path class="st2" d="M521.04,887.62c0-7.43,5.64-13.62,12.93-13.62c3.21,0,6.28,1.29,8.03,3.62l0.32-3.07h2.66l-2.43,23.16h-2.66
		l0.32-2.98c-2.16,2.29-5.41,3.53-8.67,3.53C525.44,898.26,521.04,893.9,521.04,887.62z M532.04,895.83c3.12,0,6.33-1.38,8.48-4.08
		l1.15-11.19c-1.61-2.71-4.49-4.13-7.61-4.13c-5.96,0-10.27,4.91-10.27,10.96C523.79,892.57,527.32,895.83,532.04,895.83z"/>
	<path class="st2" d="M600.2,897.11l-8.3-22.57h2.84l7.15,19.63l10.92-19.63h2.89l-18.48,33.16h-2.94L600.2,897.11z"/>
	<path class="st2" d="M659.32,887.53c0-7.43,5.69-13.53,13.3-13.53c6.38,0,10.92,4.5,10.92,10.73c0,7.48-5.73,13.53-13.3,13.53
		C663.82,898.26,659.32,893.81,659.32,887.53z M670.38,895.83c5.92,0,10.41-4.86,10.41-10.92c0-4.95-3.35-8.48-8.3-8.48
		c-5.96,0-10.41,4.91-10.41,10.92C662.07,892.34,665.38,895.83,670.38,895.83z"/>
	<path class="st2" d="M787.38,874.55h2.66l-2.43,23.16h-2.66L787.38,874.55z M789.58,865.79c1.15,0,2.06,0.87,2.06,2.02
		c0,1.33-1.05,2.38-2.39,2.38c-1.15,0-2.06-0.83-2.06-2.02C787.2,866.84,788.3,865.79,789.58,865.79z"/>
	<path class="st2" d="M845.26,897.11l-8.3-22.57h2.84l7.15,19.63l10.92-19.63h2.89l-18.48,33.16h-2.94L845.26,897.11z"/>
	<path class="st2" d="M904.38,887.53c0-7.43,5.69-13.53,13.3-13.53c6.38,0,10.92,4.5,10.92,10.73c0,7.48-5.73,13.53-13.3,13.53
		C908.88,898.26,904.38,893.81,904.38,887.53z M915.43,895.83c5.92,0,10.41-4.86,10.41-10.92c0-4.95-3.35-8.48-8.3-8.48
		c-5.96,0-10.41,4.91-10.41,10.92C907.13,892.34,910.44,895.83,915.43,895.83z"/>
	<path class="st2" d="M1034.04,865.6h12.2c5.96,0,9.82,3.12,9.82,8.26c0,6.15-4.04,9.82-10.04,10.37l8.81,13.48h-3.3l-8.67-13.39
		h-7.98l-1.38,13.39h-2.8L1034.04,865.6z M1044.27,881.75c5.41,0,8.94-2.61,8.94-7.75c0-3.81-2.66-5.82-7.52-5.82h-9.13l-1.42,13.58
		H1044.27z"/>
	<path class="st2" d="M1102.38,887.62c0-7.43,5.64-13.62,12.93-13.62c3.21,0,6.28,1.29,8.03,3.62l0.32-3.07h2.66l-2.43,23.16h-2.66
		l0.32-2.98c-2.16,2.29-5.41,3.53-8.67,3.53C1106.79,898.26,1102.38,893.9,1102.38,887.62z M1113.39,895.83
		c3.12,0,6.33-1.38,8.48-4.08l1.15-11.19c-1.61-2.71-4.49-4.13-7.61-4.13c-5.96,0-10.27,4.91-10.27,10.96
		C1105.13,892.57,1108.67,895.83,1113.39,895.83z"/>
	<path class="st2" d="M1173.57,887.62c0-7.48,5.64-13.62,12.98-13.62c3.26,0,6.28,1.29,7.98,3.58l0.32-3.03h2.66l-3.49,33.16h-2.66
		l1.38-12.98c-2.16,2.29-5.46,3.53-8.67,3.53C1178.02,898.26,1173.57,893.9,1173.57,887.62z M1184.57,895.83
		c3.12,0,6.33-1.38,8.48-4.08l1.15-11.24c-1.56-2.66-4.49-4.08-7.57-4.08c-5.96,0-10.32,4.91-10.32,10.96
		C1176.32,892.57,1179.9,895.83,1184.57,895.83z"/>
	<path class="st2" d="M1247.64,874.55h2.66l-2.43,23.16h-2.66L1247.64,874.55z M1249.84,865.79c1.15,0,2.06,0.87,2.06,2.02
		c0,1.33-1.05,2.38-2.39,2.38c-1.15,0-2.06-0.83-2.06-2.02C1247.46,866.84,1248.56,865.79,1249.84,865.79z"/>
	<path class="st2" d="M1300.43,874.55h2.66l-2.43,23.16H1298L1300.43,874.55z M1302.63,865.79c1.15,0,2.06,0.87,2.06,2.02
		c0,1.33-1.06,2.38-2.39,2.38c-1.15,0-2.06-0.83-2.06-2.02C1300.25,866.84,1301.35,865.79,1302.63,865.79z"/>
	<path class="st2" d="M1349.37,894.54l1.79-1.97c2.06,2.16,4.86,3.3,7.89,3.3c3.9,0,6.56-1.88,6.56-4.72c0-1.65-1.15-2.89-4.13-3.53
		l-4.49-1.06c-3.99-0.92-5.64-2.71-5.64-5.23c0-4.45,4.08-7.34,9.13-7.34c3.53,0,6.79,1.29,8.76,3.67l-1.83,1.83
		c-1.79-2.02-4.13-3.07-7.11-3.07c-3.53,0-6.28,1.74-6.28,4.54c0,1.61,1.05,2.57,4.17,3.3l4.45,1.05c3.94,0.92,5.64,2.75,5.64,5.41
		c0,4.82-4.04,7.52-9.45,7.52C1355.06,898.26,1351.52,896.93,1349.37,894.54z"/>
</g>
<g>
	<g>
		<path class="st0" d="M465.72,740.76h25.35l-3.66,35.91h37.17l3.66-35.91h25.35l-10.28,98.57h-25.34l3.94-38.44h-37.17l-3.94,38.44
			h-25.35L465.72,740.76z"/>
		<path class="st0" d="M568.64,766.39h23.94l-7.6,72.94h-23.94L568.64,766.39z M584.13,731.61c7.46,0,12.95,5.49,12.95,12.81
			c0,8.17-7.04,15.07-15.49,15.07c-7.46,0-13.1-5.49-13.1-12.67C568.5,738.65,575.54,731.61,584.13,731.61z"/>
		<path class="st0" d="M612.72,735.41h23.94l-10.84,103.92h-23.94L612.72,735.41z"/>
		<path class="st0" d="M642.57,807.22c0-22.95,16.62-42.52,38.86-42.52c6.62,0,12.67,1.97,17.88,6.05l0.42-4.37h23.94l-7.6,72.94
			h-23.94l0.42-3.94c-5.49,3.8-11.69,5.63-18.31,5.63C656.23,841.02,642.57,826.94,642.57,807.22z M680.73,818.77
			c5.21,0,10-1.97,14.22-6.05l1.97-19.85c-3.24-3.94-7.74-5.91-12.81-5.91c-9.86,0-17.18,7.18-17.18,18.02
			C666.93,813.42,672.42,818.77,680.73,818.77z"/>
		<path class="st0" d="M732.82,807.22c0-22.95,16.62-42.52,38.86-42.52c6.62,0,12.67,1.97,17.88,6.05l0.42-4.37h23.94l-7.6,72.94
			h-23.94l0.42-3.94c-5.49,3.8-11.69,5.63-18.31,5.63C746.48,841.02,732.82,826.94,732.82,807.22z M770.98,818.77
			c5.21,0,10-1.97,14.22-6.05l1.97-19.85c-3.24-3.94-7.74-5.91-12.81-5.91c-9.86,0-17.18,7.18-17.18,18.02
			C757.18,813.42,762.67,818.77,770.98,818.77z"/>
		<path class="st0" d="M834.06,735.41H858l-10.84,103.92h-23.94L834.06,735.41z"/>
		<path class="st1" d="M875.18,740.76h32.53l19.43,62.52l32.39-62.52h33.37l-10.28,98.57h-24.78l6.2-59.7l-29.57,56.89h-20.84
			l-17.74-57.31l-6.2,60.12H864.9L875.18,740.76z"/>
		<path class="st1" d="M1000.21,807.22c0-22.95,16.62-42.52,38.86-42.52c6.62,0,12.67,1.97,17.88,6.05l0.42-4.37h23.94l-7.6,72.94
			h-23.94l0.42-3.94c-5.49,3.8-11.69,5.63-18.31,5.63C1013.87,841.02,1000.21,826.94,1000.21,807.22z M1038.37,818.77
			c5.21,0,10-1.97,14.22-6.05l1.97-19.85c-3.24-3.94-7.74-5.91-12.81-5.91c-9.86,0-17.18,7.18-17.18,18.02
			C1024.57,813.42,1030.06,818.77,1038.37,818.77z"/>
		<path class="st1" d="M1098.21,766.39h23.94l-0.7,6.2c5.21-5.21,11.83-7.88,18.31-7.88c2.25,0,4.79,0.28,7.46,0.99l-2.68,22.25
			c-2.53-0.28-4.65-0.42-6.34-0.42c-7.04,0-13.8,2.82-19.15,8.45l-4.51,43.37h-23.94L1098.21,766.39z"/>
		<path class="st1" d="M1161.29,735.41h23.94l-5.77,55.2l26.89-24.22h31.12l-33.93,31.26l26.89,41.68h-28.16l-16.05-25.91
			l-10.14,9.43l-1.69,16.47h-23.94L1161.29,735.41z"/>
		<path class="st1" d="M1233.24,807.93c0-24.78,18.16-43.23,43.23-43.23c19.85,0,34.22,11.83,34.22,31.82
			c0,3.66-0.99,9.58-1.69,12.81h-52.52c1.13,7.74,6.05,11.69,15.21,11.69c6.2,0,12.25-1.83,18.45-7.46l15.91,12.53
			c-9.86,10.14-21.97,14.93-35.77,14.93C1247.46,841.02,1233.24,827.5,1233.24,807.93z M1287.45,793.56
			c-1.13-6.48-5.77-9.29-12.67-9.29c-7.74,0-12.95,3.66-15.77,9.29H1287.45z"/>
		<path class="st1" d="M1328.29,810.46l2.39-22.95h-12.67l2.25-21.12h12.67l1.69-16.33h23.94l-1.69,16.33h19.43l-2.25,21.12h-19.29
			l-2.11,19.85c-0.84,7.89,1.13,11.12,8.17,11.12c2.54,0,5.91-0.42,9.58-1.55l1.55,20.98c-4.93,1.69-11.41,2.82-17.88,2.82
			C1335.89,840.74,1326.17,831.3,1328.29,810.46z"/>
	</g>
</g>
<path class="st2" d="M257.88,908.27c-12.93,0-23.45-10.52-23.45-23.45c0-12.93,10.52-23.45,23.45-23.45
	c12.93,0,23.45,10.52,23.45,23.45C281.34,897.75,270.82,908.27,257.88,908.27z M257.88,877.04c-4.29,0-7.77,3.49-7.77,7.77
	c0,4.29,3.49,7.77,7.77,7.77c4.29,0,7.77-3.49,7.77-7.77C265.66,880.53,262.17,877.04,257.88,877.04z"/>
<path class="st2" d="M361.42,908.27c-12.93,0-23.45-10.52-23.45-23.45c0-12.93,10.52-23.45,23.45-23.45
	c12.93,0,23.45,10.52,23.45,23.45C384.87,897.75,374.35,908.27,361.42,908.27z M361.42,877.04c-4.29,0-7.77,3.49-7.77,7.77
	c0,4.29,3.49,7.77,7.77,7.77c4.29,0,7.77-3.49,7.77-7.77C369.19,880.53,365.71,877.04,361.42,877.04z"/>
<path class="st2" d="M423.74,752.18c-3.9-1.88-8.59-0.24-10.47,3.66c-19.28,39.99-60.31,65.73-104.66,65.73c-0.22,0-0.43,0-0.65,0
	c-63.64-0.36-115.41-53.21-115.41-117.8v-10c0-16.77-10.6-31.84-26.39-37.51l-33.81-12.14c-4.07-1.46-8.56,0.65-10.03,4.73
	c-1.46,4.08,0.65,8.56,4.73,10.03l33.81,12.14c0.37,0.13,0.72,0.29,1.08,0.43l0-0.01c0,0,15.21,3.76,26.12,26.87
	c0,0-4.73-8.6-14.11-16c1.87,3.45,2.92,7.37,2.92,11.46v10c0,73.19,58.77,133.07,131,133.48c0.25,0,0.49,0,0.74,0
	c50.33,0,96.9-29.22,118.78-74.6C429.28,758.75,427.64,754.06,423.74,752.18z"/>
<path class="st2" d="M390.45,873.24c-0.83,0-1.68-0.13-2.52-0.42c-0.35-0.12-36.22-12.04-81.79-12.04
	c-45.44,0-73.98,11.73-74.27,11.85c-3.99,1.67-8.59-0.21-10.26-4.2c-1.67-3.99,0.21-8.59,4.21-10.26
	c1.27-0.53,31.77-13.06,80.32-13.06c48.27,0,85.27,12.34,86.82,12.87c4.1,1.39,6.3,5.84,4.91,9.94
	C396.77,871.18,393.72,873.24,390.45,873.24z"/>
<g>
	<g>
		<linearGradient id="SVGID_1_" gradientUnits="userSpaceOnUse" x1="284.742" y1="657.3885" x2="325.5033" y2="784.0399">
			<stop  offset="0" style="stop-color:#B9DE60"/>
			<stop  offset="1" style="stop-color:#6AA632"/>
		</linearGradient>
		<path class="st3" d="M379.03,706.31c-15.41-11.04-34.83-15.67-53.78-15.12c-18.95,0.55-37.69,5.57-54.84,13.64
			c25.47-11.99,53.2-20.26,81.4-19.08c16.97,0.71,34.1,5.33,48.71,13.83c-1.9-3.35-4.15-6.55-6.8-9.51
			c-0.51-0.57-1.04-1.14-1.57-1.69c-13.6-14-33.29-21.3-52.88-22.23c-19.59-0.95-39.11,4.06-57.08,11.83
			c-12.55,5.4-24.84,12.26-38.44,13.72c-13.59,1.47-28.1-4.41-32.64-17.2c-4.72,12.84-6.97,26.9-6.16,41.54
			c2.97,53.81,47.61,96.67,101.49,97.59c42.34,0.72,78.98-23.98,95.67-59.86c1.17-2.51,2.15-5.09,2.97-7.7
			C402.12,730.22,392.23,715.77,379.03,706.31z"/>
	</g>
	
		<linearGradient id="SVGID_00000124154729299531599890000008783900312441311934_" gradientUnits="userSpaceOnUse" x1="192.6911" y1="723.0212" x2="402.3217" y2="772.1534">
		<stop  offset="0" style="stop-color:#FFFFFF"/>
		<stop  offset="1" style="stop-color:#FFFFFF;stop-opacity:0"/>
	</linearGradient>
	<path style="opacity:0.3;fill:url(#SVGID_00000124154729299531599890000008783900312441311934_);" d="M379.03,706.31
		c-15.41-11.04-34.83-15.67-53.78-15.12c-5.2,0.15-10.38,0.65-15.52,1.44c-2.28,1.18-4.37,2.66-6.02,4.61
		c-2.88,3.4-4.2,8.39-2.34,12.44c1.94,4.23,6.8,6.44,11.44,6.78c4.64,0.34,9.24-0.81,13.84-1.51c4.6-0.7,9.52-0.9,13.68,1.18
		c7.05,3.54,9.6,12.38,9.78,20.27c0.22,9.85-2.27,20.01-8.43,27.7c-6.16,7.68-16.34,12.45-26.04,10.71
		c-9.09-1.63-16.27-8.32-23.65-13.86c-7.74-5.81-16.67-10.73-26.34-11.08c-9.67-0.36-20.05,4.99-22.98,14.21
		c-1.49,4.7-1.48,10.71-5.77,13.16c-2.17,1.24-4.82,1.05-7.19,0.13c18.69,21.78,46.22,35.75,76.73,36.27
		c42.34,0.72,78.98-23.98,95.67-59.86c1.17-2.51,2.15-5.09,2.97-7.7C402.12,730.22,392.23,715.77,379.03,706.31z"/>
</g>
<g>
	
		<linearGradient id="SVGID_00000000191582062596753530000010898104425619802799_" gradientUnits="userSpaceOnUse" x1="361.9938" y1="590.3482" x2="345.0707" y2="659.6786">
		<stop  offset="0" style="stop-color:#DE3030"/>
		<stop  offset="1" style="stop-color:#A52A2A"/>
	</linearGradient>
	<path style="fill:url(#SVGID_00000000191582062596753530000010898104425619802799_);" d="M386.02,650
		c-1.69-6.54-4.08-13.13-8.7-18.06c-5.89-6.28-14.94-9.07-23.52-8.4c-8.58,0.67-16.7,4.52-23.5,9.8
		c-9.04-3.54-19.99-0.23-26.75,6.73c-6.77,6.96-8.85,18.09-5.05,27.02c13.01-6.52,30.97-8.1,48.92-5.55
		c16.33,2.32,29.69,8.7,42.16,19.48C389.83,670.59,388.62,660.12,386.02,650z M372.84,636.17c-3.05-3.19-7.04-5.42-11.29-6.61
		c-4.25-1.19-8.42-1.35-12.79-0.76c6.69-2.67,14.64-1.96,20.75,1.85c6.11,3.81,10.25,10.63,10.8,17.82
		C378.24,643.93,376.28,639.77,372.84,636.17z"/>
	
		<linearGradient id="SVGID_00000099642071210723588690000006560739069745027747_" gradientUnits="userSpaceOnUse" x1="331.3487" y1="590.2965" x2="338.9196" y2="630.2885">
		<stop  offset="0" style="stop-color:#B9DE60"/>
		<stop  offset="1" style="stop-color:#6AA632"/>
	</linearGradient>
	<path style="fill:url(#SVGID_00000099642071210723588690000006560739069745027747_);" d="M330.92,630.34
		c-1.77-16.77,3.45-25.5,12.3-32.09c-2.67-0.7-5.52-0.8-8.22-0.24c-3.76,4.32-6.36,9.84-7.41,15.47c-1.05,5.63-0.56,11.54,1.4,16.93
		C329.54,630.35,330.38,630.4,330.92,630.34z"/>
	
		<linearGradient id="SVGID_00000026131266968150421680000002867618079780706465_" gradientUnits="userSpaceOnUse" x1="347.9001" y1="630.6534" x2="344.5194" y2="657.3231">
		<stop  offset="0" style="stop-color:#FFFFFF"/>
		<stop  offset="1" style="stop-color:#FFFFFF;stop-opacity:0"/>
	</linearGradient>
	<path style="opacity:0.3;fill:url(#SVGID_00000026131266968150421680000002867618079780706465_);" d="M370.35,654.04
		c-4.65-2.54-8.66-6.17-13.38-8.58c-4.72-2.41-10.7-3.44-15.19-0.62c-2.5,1.57-4.2,4.1-5.99,6.45c-1.8,2.34-3.92,4.67-6.76,5.47
		c-2.84,0.81-6.47-0.57-7.1-3.46c-0.67-3.11,2.24-5.88,2.58-9.04c0.34-3.14-2.09-6.12-5.07-7.18c-2.98-1.06-6.32-0.52-9.26,0.64
		c-2.49,0.98-4.78,2.43-6.78,4.21c-2,1.79-3.68,3.92-5,6.26c-2.34,6.02-2.44,12.95,0.1,18.91c13.01-6.52,30.97-8.1,48.92-5.55
		c16.33,2.32,29.69,8.7,42.16,19.48c0.21-8.88-0.64-17.77-2.49-26.46c-0.5,0.35-1,0.67-1.53,0.95
		C380.83,657.95,375,656.58,370.35,654.04z"/>
</g>
<g>
	
		<linearGradient id="SVGID_00000055693976721271617980000007902156214580479116_" gradientUnits="userSpaceOnUse" x1="242.0576" y1="591.0422" x2="248.8127" y2="626.7252">
		<stop  offset="0" style="stop-color:#B9DE60"/>
		<stop  offset="1" style="stop-color:#6AA632"/>
	</linearGradient>
	<path style="fill:url(#SVGID_00000055693976721271617980000007902156214580479116_);" d="M260.06,623.29
		c-3.88-4.03-7.92-8.07-12.37-11.46c-4.44-3.39-9.49-6.14-14.97-7.23c1.31-2.89,3.99-4.91,7.08-5.63
		c5.32,2.63,10.11,6.14,14.55,10.07C255.83,613.84,257.6,618.91,260.06,623.29z"/>
	
		<linearGradient id="SVGID_00000036948533452409391710000008329869908236624261_" gradientUnits="userSpaceOnUse" x1="254.7061" y1="584.2084" x2="262.2481" y2="624.0476">
		<stop  offset="0" style="stop-color:#B9DE60"/>
		<stop  offset="1" style="stop-color:#6AA632"/>
	</linearGradient>
	<path style="fill:url(#SVGID_00000036948533452409391710000008329869908236624261_);" d="M260.7,622.88
		c-2.68-4.24-4.52-9.63-5.54-14.54c-1.02-4.91-1.44-9.92-1.87-14.92c2.21-0.96,4.55-1.65,6.96-1.7c-1.17,4.78-0.9,9.75-0.02,14.59
		c0.88,4.84,2.43,9.53,3.98,14.2C264.21,620.53,261.91,621.75,260.7,622.88z"/>
	
		<linearGradient id="SVGID_00000127730951972882639280000001256395239262902421_" gradientUnits="userSpaceOnUse" x1="253.5635" y1="621.1451" x2="291.9701" y2="660.6439">
		<stop  offset="0" style="stop-color:#FDBA52"/>
		<stop  offset="1" style="stop-color:#D49B0B"/>
	</linearGradient>
	<path style="fill:url(#SVGID_00000127730951972882639280000001256395239262902421_);" d="M298.18,633.95
		c-2.57,0.41-5.09,1.11-7.49,2.12c2.01-1.74,4.33-3.09,6.81-4.03c-0.68-1.93-1.37-3.85-2.03-5.83c-0.91-2.73-1.9-5.57-3.98-7.55
		c-1.86-1.77-4.44-2.65-7.01-2.83c-2.56-0.18-5.13,0.3-7.62,0.96c-7.83,2.08-15.15,6-21.22,11.37c-2.98,2.63-5.75,5.79-6.63,9.66
		c-0.67,2.96-0.17,6.08,0.9,8.92c0.67,1.78,1.56,3.47,2.52,5.12c3.67-3.37,8.19-5.8,13.03-6.97c-4.75,2.07-8.62,6-10.77,10.7
		c3.36,5.41,6.72,10.63,10.08,15.92c4.59-3.58,9.91-6.22,15.55-7.67c-3.08,1.67-6.19,3.36-8.87,5.61c-1.81,1.52-3.42,3.34-4.57,5.4
		c0.87,1.38,1.74,2.76,2.61,4.17c7.1-4.43,14.78-8.06,23.02-9.94c-2.78-10.6-0.01-22.49,7.17-30.76
		C299.2,636.85,298.69,635.4,298.18,633.95z"/>
	
		<linearGradient id="SVGID_00000059295845000779600940000006100257868113741492_" gradientUnits="userSpaceOnUse" x1="223.5482" y1="628.574" x2="291.7878" y2="651.4875">
		<stop  offset="0" style="stop-color:#FFFFFF"/>
		<stop  offset="1" style="stop-color:#FFFFFF;stop-opacity:0"/>
	</linearGradient>
	<path style="fill:url(#SVGID_00000059295845000779600940000006100257868113741492_);" d="M298.18,633.95
		c-2.57,0.41-5.09,1.11-7.49,2.12c2.01-1.74,4.33-3.09,6.82-4.03c-0.68-1.93-1.37-3.85-2.03-5.83c-0.04-0.12-0.09-0.25-0.13-0.38
		c-3.03-0.85-6.78-0.72-9.33,0c-4.01,1.12-7.55,4.24-8.58,8.27c-1.03,4.03,0.86,8.78,4.64,10.52c1.55,0.71,3.4,0.97,4.54,2.23
		c1.52,1.68,1.02,4.51-0.53,6.17c-1.55,1.66-3.82,2.4-6.03,2.93c-2.21,0.53-4.5,0.92-6.44,2.1c-1.94,1.18-3.46,3.39-3.04,5.62
		c0.23,1.22,0.97,2.2,1.9,3.05c2.51-1.21,5.13-2.19,7.84-2.88c-2.25,1.22-4.5,2.45-6.6,3.9c0.33,0.25,0.67,0.49,1,0.72
		c1.78,1.23,3.7,2.73,3.98,4.88c0.03,0.2,0.03,0.41,0.04,0.62c4.4-2.08,8.99-3.77,13.77-4.86c-2.78-10.6-0.01-22.49,7.17-30.76
		C299.2,636.85,298.69,635.4,298.18,633.95z"/>
</g>
<path class="st0" d="M361.42,869.61c-8.39,0-15.21,6.82-15.21,15.21c0,8.39,6.82,15.21,15.21,15.21c8.39,0,15.21-6.82,15.21-15.21
	C376.63,876.43,369.81,869.61,361.42,869.61z M361.42,892.59c-4.29,0-7.77-3.49-7.77-7.77c0-4.29,3.49-7.77,7.77-7.77
	c4.29,0,7.77,3.49,7.77,7.77C369.19,889.1,365.71,892.59,361.42,892.59z"/>
<path class="st0" d="M257.88,869.61c-8.39,0-15.21,6.82-15.21,15.21c0,8.39,6.82,15.21,15.21,15.21c8.39,0,15.21-6.82,15.21-15.21
	C273.09,876.43,266.27,869.61,257.88,869.61z M257.88,892.59c-4.29,0-7.77-3.49-7.77-7.77c0-4.29,3.49-7.77,7.77-7.77
	c4.29,0,7.77,3.49,7.77,7.77C265.66,889.1,262.17,892.59,257.88,892.59z"/>
</svg>
